# AST/ASF file generated using VICON BodyLanguage
# -----------------------------------------------
:version 1.10
:name VICON
:units
  mass 1.0
  length 0.45
  angle deg
:documentation
   .ast/.asf automatically generated from VICON data using
   VICON BodyBuilder and BodyLanguage model FoxedUp or BRILLIANT.MOD
:root
   order TX TY TZ RX RY RZ
   axis XYZ
   position 0 0 0  
   orientation 0 -0 0 
:bonedata
  begin
     id 1 
     name lhipjoint
     direction 0.500677 -0.737119 0.453848 
     length 2.34727 
     axis 0 -0 0  XYZ
  end
  begin
     id 2 
     name lfemur
     direction 0.34202 -0.939693 0  
     length 7.53653  
     axis 0 -0 20  XYZ
    dof rx ry rz
    limits (-160.0 20.0)
           (-70.0 70.0)
           (-60.0 70.0)
  end
  begin
     id 3 
     name ltibia
     direction 0.34202 -0.939693 0   
     length 6.85572   
     axis 0 -0 20   XYZ
    dof rx
    limits (-10.0 170.0)
  end
  begin
     id 4 
     name lfoot
     direction 0.155313 -0.426718 0.890949   
     length 2.18324   
     axis -90 -1.13533e-015 20   XYZ
    dof rx rz
    limits (-45.0 90.0)
           (-70.0 20.0)
  end
  begin
     id 5 
     name ltoes
     direction 1.53474e-011 -4.21647e-011 1   
     length 1.06748   
     axis -90 -1.13533e-015 20   XYZ
    dof rx
    limits (-90.0 20.0)
  end
  begin
     id 6 
     name rhipjoint
     direction -0.632471 -0.659587 0.406111   
     length 2.62319  
     axis 0 -0 0  XYZ 
  end
  begin
     id 7 
     name rfemur
     direction -0.34202 -0.939693 0   
     length 7.21735   
     axis 0 -0 -20   XYZ
    dof rx ry rz
    limits (-160.0 20.0)
           (-70.0 70.0)
           (-70.0 60.0)
  end
  begin
     id 8 
     name rtibia
     direction -0.34202 -0.939693 0   
     length 7.02558   
     axis 0 -0 -20   XYZ
    dof rx
    limits (-10.0 170.0)
 end
 begin
     id 9 
     name rfoot
     direction -0.16057 -0.441164 0.882945   
     length 2.10014  
     axis -90 1.13533e-015 -20   XYZ
    dof rx rz
    limits (-45.0 90.0)
           (-20.0 70.0)
  end
  begin
     id 10 
     name rtoes
     direction -1.53553e-011 -4.2192e-011 1   
     length 1.02554   
     axis -90 1.13533e-015 -20   XYZ
    dof rx
    limits (-90.0 20.0)
  end
  begin
     id 11 
     name lowerback
     direction 0.0401429 0.998861 -0.0258085   
     length 1.80848   
     axis 0 -0 0   XYZ
    dof rx ry rz
    limits (-20.0 45.0)
           (-30.0 30.0)
           (-30.0 30.0)
  end
  begin
     id 12 
     name upperback
     direction -0.0130978 0.999914 -0.000352645   
     length 1.8116   
     axis 0 -0 0   XYZ
    dof rx ry rz
    limits (-20.0 45.0)
           (-30.0 30.0)
           (-30.0 30.0)
  end
  begin
     id 13 
     name thorax
     direction -0.0300198 0.999453 0.0138573   
     length 1.81778   
     axis 0 -0 0   XYZ
    dof rx ry rz
    limits (-20.0 45.0)
           (-30.0 30.0)
           (-30.0 30.0)
  end
  begin
     id 14 
     name lowerneck
     direction -0.0401726 0.999191 -0.00173647   
     length 2.10594   
     axis 0 -0 0   XYZ
    dof rx ry rz
    limits (-20.0 45.0)
           (-30.0 30.0)
           (-30.0 30.0)
  end
  begin
     id 15 
     name upperneck
     direction 0.0119835 0.998501 0.0534085   
     length 2.07325   
     axis 0 -0 0   XYZ
    dof rx ry rz
    limits (-20.0 45.0)
           (-30.0 30.0)
           (-30.0 30.0)
  end
  begin
     id 16
     name head
     direction 0.00628309 0.999826 0.0175921  
     length 2.15096  
     axis 0 -0 0   XYZ
    dof rx ry rz
    limits (-20.0 45.0)
           (-30.0 30.0)
           (-30.0 30.0)
  end
  begin
     id 17 
     name lclavicle
     direction 0.895501 0.429681 -0.115981  
     length 4.18092  
     axis 0 -0 0   XYZ
    dof ry rz
    limits (-20.0 10.0)
           (0.0 20.0)
  end
  begin
     id 18 
     name lhumerus
     direction 1 -4.48961e-011 -3.38433e-028   
     length 5.77237   
     axis 180 -30 -90   XYZ
    dof rx ry rz
    limits (-60.0 90.0)
           (-90.0 90.0)
           (-90.0 90.0)
  end
  begin
     id 19
     name lradius
     direction 1 -4.4901e-011 1.11983e-026   
     length 2.91878   
     axis 180 -30 -90   XYZ
    dof rx
    limits (-10.0 170.0)
  end
  begin
     id 20
     name lwrist
     direction 1 -4.48934e-011 1.88176e-026   
     length 1.45939   
     axis -1.23311e-014 90 90   XYZ
    dof ry
    limits (-180.0 0.0)
 end
  begin
     id 21 
     name lhand
     direction 1 -4.4895e-011 3.76352e-026   
     length 1.06566   
     axis -2.40147e-014 90 90   XYZ
    dof rx rz
    limits (-90.0 90.0)
           (-45.0 45.0)
  end
  begin
     id 22 
     name lfingers
     direction 1 -4.49005e-011 7.52705e-026   
     length 0.859162   
     axis -4.80295e-014 90 90   XYZ
    dof rx
    limits (0.0 90.0)
  end
  begin
     id 23
     name lthumb
     direction 0.707107 -6.34885e-011 0.707107   
     length 1.23359   
     axis -90 45 -9.86935e-015   XYZ
    dof rx rz
    limits (-45.0 45.0)
           (-45.0 45.0)
  end
  begin
     id 24 
     name rclavicle
     direction -0.91006 0.40451 -0.0903492   
     length 4.23293  
     axis 0 -0 0   XYZ 
    dof ry rz
    limits (-10.0 20.0)
           (-20.0 0.0)
  end
  begin
     id 25 
     name rhumerus
     direction -1 -4.4897e-011 1.7415e-027  
     length 5.49854   
     axis 180 30 90   XYZ
    dof rx ry rz
    limits (-90.0 60.0)
           (-90.0 90.0)
           (-90.0 90.0)
  end
  begin
     id 26 
     name rradius
     direction -1 -4.48963e-011 1.21259e-026   
     length 3.1186   
     axis 180 30 90   XYZ
    dof rx
    limits (-10.0 170.0)
  end
  begin
     id 27 
     name rwrist
     direction -1 -4.48967e-011 1.88176e-026   
     length 1.5593   
     axis -1.23311e-014 -90 -90   XYZ
    dof ry
    limits (-180.0 0.0)
  end
  begin
     id 28
     name rhand
     direction -1 -4.4895e-011 3.76352e-026   
     length 0.71207   
     axis -2.40147e-014 -90 -90   XYZ
    dof rx rz
    limits (-90.0 90.0)
           (-45.0 45.0)
  end
  begin
     id 29
     name rfingers
     direction -1 -4.49005e-011 7.52705e-026   
     length 0.574089   
     axis -4.80295e-014 -90 -90   XYZ
    dof rx
    limits (0.0 90.0)
  end
  begin
     id 30
     name rthumb
     direction -0.707107 -6.34982e-011 0.707107   
     length 0.824281   
     axis -90 -45 9.86935e-015   XYZ
    dof rx rz
    limits (-45.0 45.0)
           (-45.0 45.0)
  end
:hierarchy
  begin
    root lhipjoint rhipjoint lowerback
    lhipjoint lfemur
    lfemur ltibia
    ltibia lfoot
    lfoot ltoes
    rhipjoint rfemur
    rfemur rtibia
    rtibia rfoot
    rfoot rtoes
    lowerback upperback
    upperback thorax
    thorax lowerneck lclavicle rclavicle
    lowerneck upperneck
    upperneck head
    lclavicle lhumerus
    lhumerus lradius
    lradius lwrist
    lwrist lhand lthumb
    lhand lfingers
    rclavicle rhumerus
    rhumerus rradius
    rradius rwrist
    rwrist rhand rthumb
    rhand rfingers
  end

#!OML:ASF C:\ViconDB\ViconDB\414\Spring2016\042216\male.ASF
:FULLY-SPECIFIED
:DEGREES
117
root -29.5096 17.0273 13.1535 -158.486 74.6452 -167.158
lowerback -1.78707 -3.74573 5.43493
upperback 0.351773 -5.11197 -0.166703
thorax 0.873127 -2.52293 -3.31068
lowerneck -1.50855 0.4418 -3.8766
upperneck -3.69905 0.939932 8.3469
head -0.975195 0.486423 3.37158
rclavicle 4.13472e-014 -1.15295e-014
rhumerus -37.9161 -16.541 -81.6221
rradius 27.0235
rwrist 32.8648
rhand 13.6014 -20.8223
rfingers 7.12502
rthumb 38.5336 -46.4743
lclavicle 4.13472e-014 -1.15295e-014
lhumerus -25.912 1.73854 92.3648
lradius 51.3149
lwrist -0.216484
lhand -6.74856 12.9768
lfingers 7.12502
lthumb 19.1126 42.0577
rfemur -37.4242 6.20687 18.4515
rtibia 20.0645
rfoot -9.58008 -14.9306
rtoes -11.0844
lfemur 12.3908 -8.00973 -18.1758
ltibia 0
lfoot -22.6013 13.3256
ltoes -22.613
118
root -29.3507 17.0026 13.1551 -158.714 74.1498 -167.326
lowerback -1.76757 -3.78709 5.58634
upperback 0.36082 -5.1696 -0.0243517
thorax 0.865962 -2.55033 -3.24756
lowerneck -1.66383 0.336678 -4.10225
upperneck -3.76047 0.809153 8.39515
head -0.960517 0.426516 3.43264
rclavicle -1.98785e-014 -1.19271e-014
rhumerus -38.2995 -17.3718 -80.7464
rradius 26.3756
rwrist 33.8113
rhand 13.5426 -20.7368
rfingers 7.12502
rthumb 38.4781 -46.4044
lclavicle -1.98785e-014 -1.19271e-014
lhumerus -25.6334 1.46049 92.5556
lradius 51.6217
lwrist -0.292401
lhand -7.45564 12.6538
lfingers 7.12502
lthumb 18.4326 41.8005
rfemur -36.887 6.4531 18.3734
rtibia 20.415
rfoot -9.67283 -15.6615
rtoes -10.2585
lfemur 12.9461 -8.40946 -17.958
ltibia -2.54444e-014
lfoot -22.0905 13.3898
ltoes -23.7328
119
root -29.1773 16.9867 13.1482 -159.713 73.8647 -168.458
lowerback -2.03672 -3.82466 5.53705
upperback 0.299818 -5.23405 4.51038e-005
thorax 0.954111 -2.58144 -3.21376
lowerneck -1.80685 0.32133 -4.36711
upperneck -3.71656 0.795219 8.52121
head -0.923015 0.425939 3.52771
rclavicle -4.57205e-014 2.98177e-014
rhumerus -38.7896 -18.1266 -79.9128
rradius 25.7348
rwrist 35.0026
rhand 13.4731 -20.4143
rfingers 7.12502
rthumb 38.4125 -46.1001
lclavicle -4.57205e-014 2.98177e-014
lhumerus -25.3541 1.33362 92.6145
lradius 51.7196
lwrist -0.306809
lhand -7.76299 12.5867
lfingers 7.12502
lthumb 18.1369 41.7611
rfemur -36.5881 5.59335 18.6311
rtibia 20.8344
rfoot -8.51181 -15.3351
rtoes -11.7494
lfemur 13.3669 -8.69713 -18.1108
ltibia 3.18055e-015
lfoot -21.6223 13.3401
ltoes -24.6598
120
root -29.003 16.9785 13.1477 -160.135 73.5671 -168.833
lowerback -2.08301 -3.83379 5.5534
upperback 0.269042 -5.24885 0.138919
thorax 0.958422 -2.58871 -3.08288
lowerneck -1.86516 0.291233 -4.58628
upperneck -3.84072 0.763958 8.47419
head -0.951449 0.413103 3.55459
rclavicle 6.73383e-014 -1.19271e-015
rhumerus -39.2627 -18.3592 -79.292
rradius 25.3788
rwrist 35.6416
rhand 14.0001 -21.4879
rfingers 7.12502
rthumb 38.9097 -47.0337
lclavicle 6.73383e-014 -1.19271e-015
lhumerus -25.1612 1.37316 92.6965
lradius 51.732
lwrist -0.984489
lhand -7.41031 12.3103
lfingers 7.12502
lthumb 18.4762 41.4528
rfemur -36.1694 5.61476 18.7256
rtibia 21.3355
rfoot -6.93071 -16.0765
rtoes -12.4162
lfemur 13.9499 -8.93775 -18.0147
ltibia -9.54166e-015
lfoot -21.2767 13.0929
ltoes -25.2601
121
root -28.8504 16.9829 13.1571 -161.084 72.7823 -169.942
lowerback -1.90564 -4.03425 5.46494
upperback 0.0805011 -5.49603 0.266729
thorax 0.662492 -2.72431 -2.8822
lowerneck -1.86078 0.235574 -4.72458
upperneck -4.00996 0.699068 8.41949
head -1.00241 0.381125 3.56349
rclavicle -3.13583e-014 2.34566e-014
rhumerus -39.6932 -19.3472 -78.2912
rradius 24.6761
rwrist 37.0303
rhand 14.1503 -21.2867
rfingers 7.12502
rthumb 39.0512 -46.7921
lclavicle -3.13583e-014 2.34566e-014
lhumerus -25.0793 1.24536 92.8208
lradius 51.8074
lwrist -0.684417
lhand -7.78799 12.2486
lfingers 7.12502
lthumb 18.1128 41.4252
rfemur -36.1478 5.96563 18.3276
rtibia 21.9706
rfoot -4.33489 -17.9493
rtoes -11.7587
lfemur 14.1392 -9.70467 -17.917
ltibia 3.81667e-014
lfoot -20.5363 12.7834
ltoes -26.1555
122
root -28.6746 16.9851 13.1542 -160.899 72.4971 -169.747
lowerback -2.06079 -4.02387 5.80922
upperback 0.107421 -5.50037 0.302777
thorax 0.748156 -2.72142 -3.04812
lowerneck -1.9865 0.180438 -4.49927
upperneck -4.25242 0.634842 8.13844
head -1.04981 0.349188 3.42316
rclavicle -3.97569e-014 -3.37934e-015
rhumerus -39.9832 -20.3163 -77.5648
rradius 24.0982
rwrist 38.1662
rhand 14.6258 -21.5299
rfingers 7.12502
rthumb 39.4993 -46.9051
lclavicle -3.97569e-014 -3.37934e-015
lhumerus -24.8589 1.08552 92.763
lradius 51.6523
lwrist -0.862423
lhand -8.15829 12.3828
lfingers 7.12502
lthumb 17.7565 41.5921
rfemur -35.9668 6.5523 18.2578
rtibia 22.562
rfoot -3.49574 -19.4443
rtoes -11.6966
lfemur 14.625 -9.88432 -17.6268
ltibia 1.59028e-014
lfoot -19.8523 12.3283
ltoes -26.9961
123
root -28.5001 16.986 13.1569 -161.075 72.468 -169.916
lowerback -1.93608 -3.99113 5.73551
upperback 0.0017898 -5.44221 0.445579
thorax 0.595548 -2.69844 -2.84617
lowerneck -2.00759 0.158215 -4.61203
upperneck -4.43181 0.612923 8.0112
head -1.10202 0.339714 3.40189
rclavicle 4.0229e-014 5.96354e-016
rhumerus -40.3977 -21.2027 -76.5828
rradius 23.4357
rwrist 39.8125
rhand 14.441 -20.796
rfingers 7.12502
rthumb 39.3252 -46.2221
lclavicle 4.0229e-014 5.96354e-016
lhumerus -24.8652 1.20965 92.8296
lradius 51.374
lwrist -1.32422
lhand -8.30905 12.1474
lfingers 7.12502
lthumb 17.6114 41.3698
rfemur -35.7412 6.81513 18.2395
rtibia 23.155
rfoot -3.76176 -19.9921
rtoes -12.8945
lfemur 15.1183 -9.86129 -17.5104
ltibia -2.8625e-014
lfoot -18.7292 11.9199
ltoes -28.1862
124
root -28.3156 16.9857 13.1514 -160.431 72.6198 -169.306
lowerback -2.08035 -3.86823 6.05561
upperback -0.0823431 -5.2909 0.50434
thorax 0.579929 -2.62305 -2.9683
lowerneck -1.95092 0.174798 -4.59647
upperneck -4.64937 0.647586 7.97548
head -1.18416 0.355043 3.38804
rclavicle 2.67117e-014 -9.74045e-015
rhumerus -40.6953 -21.2392 -76.2209
rradius 23.0725
rwrist 39.9907
rhand 14.6355 -21.3448
rfingers 7.12502
rthumb 39.5085 -46.7172
lclavicle 2.67117e-014 -9.74045e-015
lhumerus -24.9662 1.61117 92.5964
lradius 50.9431
lwrist -2.54899
lhand -7.86847 11.2467
lfingers 7.12502
lthumb 18.0354 40.4305
rfemur -35.6115 6.41951 18.8431
rtibia 23.8813
rfoot -3.87729 -19.0782
rtoes -12.7804
lfemur 15.5979 -9.59002 -17.2144
ltibia 0
lfoot -17.447 11.4095
ltoes -29.2883
125
root -28.1355 16.9944 13.1468 -160.397 72.8498 -169.283
lowerback -2.02966 -3.81659 6.19508
upperback -0.20452 -5.21565 0.504665
thorax 0.420195 -2.59219 -3.03447
lowerneck -2.01438 0.225223 -4.51425
upperneck -4.7221 0.717351 7.85526
head -1.19961 0.39065 3.33064
rclavicle 2.47487e-014 -1.07344e-014
rhumerus -40.9972 -21.6801 -75.7176
rradius 22.6199
rwrist 40.7657
rhand 14.7874 -21.7158
rfingers 7.12502
rthumb 39.6515 -47.0461
lclavicle 2.47487e-014 -1.07344e-014
lhumerus -25.1471 1.88887 92.3301
lradius 50.6033
lwrist -2.61043
lhand -7.89914 11.5606
lfingers 7.12502
lthumb 18.0059 40.7471
rfemur -35.5243 4.83577 19.8438
rtibia 24.7039
rfoot -3.2381 -16.727
rtoes -12.0663
lfemur 16.0716 -9.30636 -17.123
ltibia 1.90833e-014
lfoot -15.9091 10.7593
ltoes -30.3588
126
root -27.9491 17.0028 13.1406 -161.508 73.1404 -170.116
lowerback -1.82306 -3.77725 5.91307
upperback -0.199775 -5.14335 0.539176
thorax 0.344461 -2.55881 -2.82857
lowerneck -2.04397 0.281336 -4.50245
upperneck -4.78169 0.78638 7.62267
head -1.21617 0.426436 3.24796
rclavicle -2.75814e-015 6.4605e-015
rhumerus -41.1784 -22.1912 -74.9843
rradius 22.1843
rwrist 42.0699
rhand 15.0484 -21.4839
rfingers 7.12502
rthumb 39.8972 -46.7408
lclavicle -2.75814e-015 6.4605e-015
lhumerus -25.434 2.0825 92.3552
lradius 50.2911
lwrist -2.46553
lhand -8.28582 11.8172
lfingers 7.12502
lthumb 17.6338 41.0376
rfemur -35.1633 3.12741 20.5749
rtibia 25.7236
rfoot -3.36841 -14.463
rtoes -12.4672
lfemur 13.3803 -9.01182 -17.4033
ltibia 7.50415
lfoot -17.7012 11.1511
ltoes -32.0167
